<svg width="128" height="128" viewBox="0 0 128 128" fill="none" xmlns="http://www.w3.org/2000/svg">
<rect x="29" y="64" width="69" height="20" fill="black"/>
<path d="M125.08 85.2303L117.23 83.8103C117.3 81.9303 117.27 80.0303 117.15 78.1303L125.22 76.9303C126.38 76.7603 127.19 75.6703 127.02 74.5003C126.85 73.3303 125.75 72.5403 124.6 72.7103L116.64 73.9003C115.65 68.2403 113.41 62.6303 110.12 57.5503C111.17 47.5303 113.17 20.3803 105.03 14.9103C98.54 10.5503 83.08 26.7403 78.09 32.5403C76.94 33.8803 75.89 35.0903 74.93 36.1903C71.45 35.6603 67.91 35.3703 64.38 35.3703C60.86 35.3703 57.32 35.6603 53.84 36.1903C52.87 35.0903 51.83 33.8803 50.68 32.5403C45.7 26.7303 30.24 10.5503 23.74 14.9003C15.59 20.3703 17.61 47.5403 18.65 57.5503C15.34 62.6603 13.1 68.3103 12.12 74.0003L3.41004 72.7003C2.24004 72.5403 1.16004 73.3303 0.980042 74.4903C0.810042 75.6603 1.61004 76.7503 2.78004 76.9203L11.61 78.2403C11.5 80.0503 11.47 81.8703 11.53 83.6703L2.92004 85.2203C1.76004 85.4303 0.990042 86.5403 1.20004 87.7003C1.39004 88.7303 2.29004 89.4503 3.30004 89.4503C3.42004 89.4503 3.55004 89.4403 3.68004 89.4203L11.88 87.9403C12.15 90.0503 12.59 92.1203 13.21 94.1403L6.65004 96.2203C5.53004 96.5803 4.90004 97.7803 5.26004 98.9003C5.55004 99.8103 6.38004 100.39 7.29004 100.39C7.51004 100.39 7.72004 100.36 7.94004 100.29L14.74 98.1303C16.71 102.38 19.72 106.28 24.14 109.58C30.19 114.09 37.72 117.15 45.47 118.81C48.42 119.44 56.03 120.91 64.02 120.91C72.01 120.91 80.37 119.44 83.32 118.81C91.07 117.15 98.6 114.09 104.65 109.58C109 106.34 111.98 102.51 113.95 98.3403L120.08 100.29C120.29 100.36 120.51 100.39 120.73 100.39C121.63 100.39 122.47 99.8103 122.76 98.9003C123.11 97.7803 122.49 96.5803 121.37 96.2203L115.51 94.3603C116.16 92.3203 116.61 90.2203 116.89 88.0803L124.34 89.4203C124.47 89.4403 124.6 89.4503 124.72 89.4503C125.73 89.4503 126.63 88.7303 126.82 87.7003C127.01 86.5503 126.24 85.4403 125.08 85.2303ZM32.51 75.1903C32.51 70.6103 35.81 66.9003 39.88 66.9003C43.94 66.9003 47.24 70.6103 47.24 75.1903C47.24 79.7703 43.56 78.2403 39.5 78.2403C35.43 78.2403 32.51 79.7803 32.51 75.1903ZM83.83 98.7403C83.56 100.41 83.13 102.16 82.37 103.7C81.27 105.91 79.54 107.88 77.34 109.19C73.08 111.72 68.11 112.39 63.16 112.4C55.61 112.42 48.07 108.46 45.62 101.53C45.45 101.05 45.01 99.7503 44.9 98.6303C44.81 97.6503 44.98 96.7903 45.83 96.7303C46.95 96.6603 47.76 97.5403 48.56 98.1403C49.3 98.6903 50.22 98.9903 51.09 99.2903C52.16 99.6503 53.22 100.03 54.33 100.25C55.52 100.49 56.86 100.34 58.03 100.09C59.73 99.7303 60.96 98.7903 62.38 97.9303C63.26 97.4003 64.25 97.0503 65.35 97.2303C66 97.3403 66.67 97.6603 67.25 97.9303C68.1 98.3103 68.91 98.8803 69.73 99.3303C70.45 99.7203 71.23 99.8703 72.08 99.8903C73.96 99.9403 75.86 100.13 77.69 99.5503C78.56 99.2703 79.38 98.9903 80.17 98.5503C81.69 97.7103 84.32 95.7103 83.83 98.7403ZM88.9 76.9303C84.83 76.9303 81.53 79.7803 81.53 75.1903C81.53 70.6103 84.83 66.9003 88.9 66.9003C92.96 66.9003 96.26 70.6103 96.26 75.1903C96.26 79.7803 92.96 76.9303 88.9 76.9303Z" fill="#FFB879"/>
</svg>
